<svg xmlns="http://www.w3.org/2000/svg" xml:space="preserve" width="170" height="24"><path d="M112.631 18.416v-.841h.692c.295 0 .603.057.603.422 0 .363-.308.42-.603.42h-.692zm1.614-.454c-.022-.505-.436-.594-.857-.594h-1.055v2.374h.297v-1.093h.541l.691 1.093h.354l-.729-1.098c.46-.019.783-.178.758-.682"/><path d="M113.141 20.404c-1.033 0-1.817-.856-1.817-1.846 0-.992.784-1.848 1.817-1.848 1.027 0 1.813.856 1.813 1.848-.001.991-.786 1.846-1.813 1.846m0-3.975c-1.196 0-2.165.953-2.165 2.129s.969 2.127 2.165 2.127c1.193 0 2.161-.951 2.161-2.127-.001-1.176-.968-2.129-2.161-2.129"/><path fill="#e2002b" d="M45.097 10.724c.437 5.487-4.142 10.323-9.687 10.493-5.861.18-10.104-4.851-8.946-10.493zM44.515 8.216c-1.368-3.459-4.76-5.529-8.475-5.434-3.668.093-7.017 2.25-8.678 5.434z"/><path d="M7.686 10.724h10.017c.691 0 1.293-.551 1.357-1.229.067-.708-.477-1.277-1.199-1.277H5.872c.508-1.455 1.017-2.905 1.523-4.359a.96.96 0 0 1 .9-.636h10.552c3.593 0 6.29 2.907 5.956 6.426-.314 3.371-3.301 6.049-6.741 6.052q-3.296 0-6.593.002c-.611 0-1.14.379-1.327.915l-1.196 3.429a.97.97 0 0 1-.899.639H3.189c-.861 0-1.392-.805-1.114-1.598.68-1.942 1.356-3.885 2.037-5.826a3.81 3.81 0 0 1 3.574-2.538M100.621 20.685q-.558-2.068-1.124-4.134c-.142-.522-.587-.85-1.131-.85h-1.558c-.612.002-1.141.381-1.328.917-.401 1.142-.797 2.288-1.198 3.429a.96.96 0 0 1-.895.639h-4.862c-.859 0-1.391-.805-1.116-1.596q1.02-2.916 2.038-5.829a3.82 3.82 0 0 1 3.578-2.534h10.016c.689 0 1.291-.554 1.356-1.232.067-.71-.476-1.279-1.198-1.279H91.21q.762-2.179 1.523-4.356a.965.965 0 0 1 .899-.637h10.555c3.593 0 6.289 2.908 5.956 6.427-.223 2.378-1.775 4.411-3.877 5.404a1147 1147 0 0 1 1.535 5.632zM56.546 8.216q.68-1.94 1.356-3.881c.193-.552-.181-1.113-.78-1.113h-5.33a.97.97 0 0 0-.9.637q-.76 2.179-1.521 4.356zM60.977 20.685H46.686c-.862 0-1.391-.805-1.114-1.596l2.923-8.363h7.176q-.501 1.431-1.001 2.865c-.277.792.265 1.597 1.125 1.597h6.089c.86 0 1.408.802 1.131 1.59l-1.14 3.268a.96.96 0 0 1-.898.639M77.481 3.557l-3.948 4.659h10.635l-.399-4.261c-.041-.431-.397-.732-.832-.732h-4.728a.95.95 0 0 0-.728.334M78.919 20.685h5.376c.542 0 .994-.485.943-1.02l-.835-8.94H71.407l-6.722 7.934c-.683.805-.205 2.025.886 2.025h4.274c.28 0 .545-.139.725-.348q1.764-2.084 3.528-4.164a1.37 1.37 0 0 1 1.047-.472h1.443c.625 0 1.141.428 1.198 1.046q.151 1.595.299 3.19a.825.825 0 0 0 .834.749"/><g fill="#262626"><path d="M134.369 16.673h-1.389V8.106h4.834V9.29h-3.445v2.678h3.229v1.189h-3.229zM139.367 16.673V8.106h1.4v7.365h3.627v1.201zM153.477 12.378q0 2.092-1.046 3.252t-2.962 1.16q-1.94 0-2.979-1.151t-1.04-3.272c0-2.121.349-2.5 1.046-3.258q1.046-1.137 2.985-1.137 1.91 0 2.953 1.154t1.043 3.252m-6.539 0q0 1.582.639 2.399t1.893.817q1.248 0 1.884-.809t.636-2.408q0-1.577-.63-2.391c-.63-.814-1.046-.814-1.878-.814q-1.26 0-1.901.814c-.641.814-.643 1.341-.643 2.392M163.221 16.673h-1.523l-1.453-5.109a20 20 0 0 1-.234-.964 11 11 0 0 1-.17-.876q-.058.375-.19.973-.132.597-.22.891l-1.418 5.086h-1.523l-1.107-4.289-1.125-4.277h1.43l1.225 4.992q.287 1.201.41 2.121.064-.498.193-1.113c.129-.615.164-.742.234-.996l1.395-5.004h1.389l1.43 5.027q.205.697.434 2.086.088-.838.422-2.133l1.219-4.981h1.418z"/></g><path fill="none" stroke="#b0b0b0" stroke-miterlimit="10" d="M124.5 18.5v-15"/></svg>