<svg xmlns="http://www.w3.org/2000/svg" width="176" height="60" fill="none"><path fill="#000" d="M.998 12.937h1.788V8.404h2.987C8.361 8.404 9.89 6.98 9.89 4.6 9.89 2.239 8.361.78 5.791.78H.998zm1.788-6.2v-4.29h2.935c1.598 0 2.38.695 2.38 2.154q0 2.136-2.397 2.136zm15.113 6.46c3.126 0 5.193-2.518 5.193-6.339 0-3.82-2.067-6.338-5.193-6.338s-5.175 2.518-5.175 6.338 2.05 6.339 5.175 6.339m0-1.667c-2.101 0-3.386-1.771-3.386-4.672s1.285-4.671 3.386-4.671c2.119 0 3.404 1.771 3.404 4.671s-1.285 4.672-3.404 4.672m10.225 1.407h2.05l2.795-9.326h.035l2.779 9.326h2.066L40.176.78h-1.823l-1.737 9.309h-.035L33.821.78h-1.685l-2.744 9.309h-.035L27.62.78h-1.84zm15.496 0h7.45v-1.668h-5.662V7.484h5.175V5.886h-5.175V2.447h5.662V.78h-7.45zm17.289-4.88c1.788-.4 2.848-1.702 2.848-3.578 0-2.31-1.546-3.699-4.081-3.699H55.09v12.157h1.788V8.196h2.137l2.5 4.74h2.015l-2.623-4.862zm-4.03-1.511V2.447h2.623c1.632 0 2.466.678 2.466 2.032s-.851 2.067-2.466 2.067zm10.599 6.39h7.45V11.27h-5.662V7.484h5.176V5.886h-5.175V2.447h5.66V.78h-7.45zm11.471 0h3.838c3.195 0 5.331-1.944 5.331-6.095 0-3.82-2.136-6.06-5.262-6.06H78.95zm1.789-1.667V2.447h2.066c2.154 0 3.526 1.476 3.526 4.394 0 3.16-1.372 4.428-3.612 4.428zm17.592 1.668h4.498c2.883 0 4.376-1.25 4.376-3.647 0-1.372-.712-2.432-1.806-2.866V6.39c.834-.416 1.355-1.302 1.355-2.43 0-1.894-1.442-3.179-3.561-3.179H98.33zm1.789-7.103V2.43h2.778c1.355 0 2.067.573 2.067 1.684 0 1.147-.677 1.72-2.067 1.72zm0 5.453V7.345h2.744c1.788 0 2.552.59 2.552 1.927 0 1.407-.781 2.015-2.587 2.015zm12.986 1.65h1.788V7.9l4.186-7.12h-1.997l-3.074 5.453h-.035L110.899.78h-1.997l4.203 7.12z"/><path fill="#fc5200" fill-rule="evenodd" d="M93.692 57.714v-.002h9.28l5.701-11.463 5.701 11.463h11.277L108.672 24.93 92.554 56.052l-6.188-9.035c3.82-1.843 6.203-5.034 6.203-9.618v-.09c0-3.236-.989-5.573-2.877-7.461-2.202-2.203-5.753-3.596-11.326-3.596H62.995v31.462h10.517v-8.99h2.247l5.933 8.99zm64.855-32.784L141.57 57.712h11.278l5.701-11.463 5.701 11.463h11.277zM133.62 59.002l16.977-32.782H139.32l-5.701 11.463-5.701-11.463h-11.277zM78.052 41.22c2.516 0 4.044-1.123 4.044-3.056v-.09c0-2.023-1.573-3.011-4-3.011h-4.584v6.157zm-37.549-6.068h-9.258v-8.899H60.28v8.9h-9.258v22.562H40.504zM5.62 46.298 0 52.995c4 3.506 9.753 5.303 16.135 5.303 8.45 0 13.888-4.045 13.888-10.652v-.09c0-6.337-5.393-8.674-13.438-10.157-3.326-.63-4.18-1.169-4.18-2.023v-.09c0-.764.72-1.303 2.292-1.303 2.921 0 6.472.944 9.438 3.1l5.124-7.1c-3.64-2.877-8.135-4.315-14.202-4.315-8.675 0-13.35 4.63-13.35 10.607v.09c0 6.652 6.204 8.675 13.26 10.112 3.37.675 4.359 1.169 4.359 2.068v.09c0 .854-.809 1.348-2.697 1.348-3.685 0-7.595-1.078-11.01-3.685" clip-rule="evenodd"/></svg>